<?xml version="1.0" encoding="utf-8"?>
<!-- Generator: Adobe Illustrator 24.0.3, SVG Export Plug-In . SVG Version: 6.00 Build 0)  -->
<svg version="1.1" xmlns="http://www.w3.org/2000/svg" xmlns:xlink="http://www.w3.org/1999/xlink" x="0px" y="0px"
	 viewBox="0 0 167.22 199.11" style="enable-background:new 0 0 167.22 199.11;" xml:space="preserve">
<style type="text/css">
	.st0{display:none;fill:#991B1E;}
	.st1{fill:#F2B735;}
	.st2{fill:#E5AD24;}
	.st3{fill:none;stroke:#E5AD24;stroke-width:5;stroke-miterlimit:10;}
	.st4{fill:none;stroke:#E5AD24;stroke-width:5;stroke-linecap:round;stroke-miterlimit:10;}
	.st5{fill:#E5AD24;stroke:#E5AD24;stroke-width:0.5;stroke-miterlimit:10;}
	.st6{fill:#E5AD24;stroke:#991B1E;stroke-miterlimit:10;}
</style>
<g id="world-layer">
	<rect class="st0" width="167.22" height="199.11"/>
	<g>
		<path class="st1" d="M82.89,43.42c-28.07,0-50.83,22.98-50.83,51.34c0,28.35,22.76,51.34,50.83,51.34
			c28.07,0,50.83-22.98,50.83-51.34C133.71,66.41,110.96,43.42,82.89,43.42z M82.89,141.99c-25.82,0-46.76-21.15-46.76-47.23
			c0-26.08,20.93-47.23,46.76-47.23c25.83,0,46.76,21.14,46.76,47.23C129.65,120.84,108.71,141.99,82.89,141.99z"/>
		<g>
			<g>
				<g>
					<g>
						<path class="st2" d="M82.05,48.76c25.16,0,45.62,20.72,45.62,46.19s-20.47,46.19-45.62,46.19s-45.63-20.72-45.63-46.19
							S56.89,48.76,82.05,48.76 M82.05,43.76c-27.96,0-50.63,22.92-50.63,51.19s22.67,51.19,50.63,51.19s50.62-22.92,50.62-51.19
							S110.01,43.76,82.05,43.76L82.05,43.76z"/>
					</g>
					<g>
						<path class="st2" d="M81.86,48.76c7.63,0,14.94,4.55,20.57,12.81c6.04,8.85,9.36,20.7,9.36,33.38s-3.33,24.53-9.36,33.38
							c-5.64,8.26-12.95,12.81-20.57,12.81s-14.94-4.55-20.57-12.81c-6.04-8.85-9.36-20.7-9.36-33.38s3.33-24.53,9.36-33.38
							C66.92,53.31,74.23,48.76,81.86,48.76 M81.86,43.76c-19.29,0-34.94,22.92-34.94,51.19s15.64,51.19,34.94,51.19
							s34.94-22.92,34.94-51.19S101.15,43.76,81.86,43.76L81.86,43.76z"/>
					</g>
					<g>
						<path class="st2" d="M82.1,49.65c5.05,4.97,16.83,22.9,16.83,44.21c0,20.3-11.53,37.65-16.88,43.63
							c-5.35-5.97-16.88-23.33-16.88-43.63C65.17,72.65,77.01,54.66,82.1,49.65 M82.08,43.76c-0.01,0-0.02,0-0.03,0
							c-3.62,0.12-21.88,22.43-21.88,50.1s19.63,50.1,21.88,50.1s21.88-22.43,21.88-50.1C103.92,66.26,85.77,43.76,82.08,43.76
							L82.08,43.76z"/>
					</g>
				</g>
				<g>
					<path class="st3" d="M33.93,93.86c42.93,3.96,37.56,2.17,45.93,1.09c10.05-1.09,49.41-7.95,49.41-7.95"/>
					<path class="st3" d="M54.67,55.37c0,0,8.12,3.38,23.81,3.12s27.12-5.81,27.12-5.81"/>
					<path class="st3" d="M114.61,59.88c0,0-19.19,10.56-36.12,10.57c-19.25,0-33.38-7.38-33.38-7.38"/>
					<path class="st4" d="M57.79,135.16c0,0,8.06-3.52,23.75-3.56c15.69-0.04,26.28,4.9,26.28,4.9"/>
					<path class="st3" d="M117.63,129.56c0,0-19.38-10.21-36.31-9.91c-19.25,0.36-33.23,7.99-33.23,7.99"/>
				</g>
			</g>
		</g>
	</g>
</g>
<g id="text-layer">
	<g>
		<path class="st2" d="M46.18,154.98c-1.13,1.9-2.49,3.27-4.08,4.12c-1.8,0.96-3.49,0.97-5.06,0.03c-1.63-0.97-2.43-2.49-2.41-4.55
			c0.02-1.76,0.59-3.58,1.72-5.47c0.52-0.87,1.17-1.68,1.96-2.42c2.32-2.18,3.79-3.09,4.43-2.71c0.32,0.19,0.39,0.45,0.2,0.76
			c-0.14,0.24-0.67,0.67-1.59,1.29c-0.54,0.36-0.95,0.67-1.23,0.94c-0.47,0.43-0.91,0.99-1.33,1.68c-0.68,1.12-0.94,2.22-0.77,3.31
			c0.17,1.14,0.76,2.01,1.78,2.61c1.03,0.62,2.04,0.74,3.03,0.38c0.94-0.34,1.76-1.09,2.44-2.22c0.71-1.18,1.12-2.39,1.24-3.61
			c0.11-1.13,0.22-1.79,0.34-1.98c0.12-0.2,0.29-0.31,0.5-0.3c0.13,0,0.24,0.03,0.33,0.08c0.62,0.37,0.52,2.1-0.3,5.19
			C47.1,153.15,46.7,154.11,46.18,154.98z"/>
		<path class="st2" d="M59.29,155.09c-0.06,0.12-0.22,0.31-0.46,0.57c-0.25,0.27-0.42,0.49-0.51,0.66l-5.76,10.93
			c-0.37,0.71-0.86,0.9-1.45,0.59c-0.55-0.29-0.69-0.73-0.42-1.32c0.06-0.12,0.16-0.28,0.32-0.47c0.16-0.2,0.26-0.35,0.32-0.45
			l1.16-2.21l-3.83-6.74l-3.14,5.96c-0.05,0.1-0.12,0.26-0.21,0.46c-0.09,0.21-0.16,0.36-0.21,0.46c-0.31,0.59-0.77,0.73-1.36,0.41
			c-0.65-0.34-0.79-0.84-0.42-1.5c0.06-0.09,0.15-0.23,0.29-0.43c0.14-0.19,0.24-0.34,0.29-0.45l4.99-9.48
			c0.14-0.26,0.27-0.64,0.4-1.14c0.13-0.5,0.24-0.85,0.35-1.05c0.16-0.3,0.39-0.45,0.68-0.44c0.16,0,0.3,0.04,0.42,0.1
			c0.16,0.08,0.45,0.49,0.86,1.23l3.87,6.81l1.5-2.85c0.52-1,1.15-1.3,1.87-0.92C59.42,154.14,59.57,154.56,59.29,155.09z"/>
		<path class="st2" d="M65.91,169.13c-0.82,1.68-2,2.14-3.54,1.38l-7.09-3.5c-0.4-0.2-0.49-0.5-0.26-0.91
			c0.11-0.2,0.29-0.37,0.52-0.5l1.38-0.76c0.27-0.15,0.49-0.33,0.65-0.55c0.21-0.29,0.34-0.56,0.4-0.81l1.29,0.63l2.74-5.59
			c0.55-1.12,0.33-1.91-0.65-2.39c-0.09-0.04-0.17-0.08-0.26-0.12c0.38-0.73,1.05-1.29,2.01-1.67c1.03-0.42,1.98-0.41,2.84,0.01
			c0.35,0.17,0.62,0.4,0.83,0.68c-0.3,0.13-0.66,0.4-1.07,0.82c-0.21,0.22-0.5,0.69-0.86,1.43l-3.78,7.71l2.36,1.16
			c0.44,0.22,0.77,0.27,0.98,0.17c0.1-0.05,0.25-0.28,0.45-0.67c0.08,0.03,0.15,0.06,0.23,0.1c0.6,0.29,0.97,0.77,1.12,1.43
			C66.34,167.81,66.24,168.46,65.91,169.13z"/>
		<path class="st2" d="M70.71,170.84c-0.22,0.56-0.62,0.98-1.21,1.27c-0.59,0.29-1.14,0.35-1.67,0.18c-1.03-0.32-1.43-0.85-1.2-1.57
			c0.02-0.07,0.05-0.15,0.09-0.22c0.36,0.01,0.68-0.09,0.95-0.32c0.17-0.15,0.35-0.52,0.54-1.12l3.16-10.02
			c0.26-0.83,0.1-1.41-0.48-1.76c0.6-1.12,1.52-1.48,2.75-1.09c0.47,0.15,0.8,0.37,1.01,0.67l0.23,0.54
			c-0.18,0.05-0.44,0.19-0.77,0.44c-0.18,0.13-0.38,0.52-0.58,1.18l-3.15,9.98c-0.14,0.45-0.2,0.79-0.17,1.03
			C70.25,170.31,70.42,170.59,70.71,170.84z"/>
		<path class="st2" d="M88.86,172.53c-0.12,0.52-0.43,0.78-0.94,0.79c-0.7,0.01-1.11-0.19-1.23-0.61c-0.02-0.07-0.03-0.61-0.05-1.61
			c0-0.43-0.07-0.95-0.22-1.59l-1-4.53c-0.03-0.14-0.09-0.4-0.17-0.75c-0.06-0.16-0.2-0.26-0.4-0.28c-0.19-0.02-0.38,0.11-0.56,0.37
			l-2.33,3.51c-0.14,0.22-0.28,0.66-0.42,1.32c-0.03,0.14-0.02,0.33,0.03,0.57c0.06,0.26,0.09,0.44,0.09,0.54
			c-0.01,0.2-0.11,0.35-0.32,0.45c-0.1,0.05-0.21,0.08-0.31,0.07c-0.18-0.01-0.39-0.21-0.61-0.6l-3.17-5.66
			c-0.16-0.29-0.33-0.45-0.51-0.46c-0.23-0.01-0.42,0.2-0.57,0.63l-1.56,4.64c-0.11,0.33-0.2,0.87-0.28,1.61
			c-0.12,1.17-0.63,1.74-1.52,1.7c-0.31-0.01-0.56-0.18-0.77-0.5c-0.07-0.11-0.1-0.27-0.09-0.48c0.01-0.28,0.09-0.63,0.22-1.06
			l3.93-12.35c0.22-0.71,0.28-1.22,0.18-1.52c-0.1-0.29-0.15-0.57-0.14-0.82c0.02-0.54,0.27-0.79,0.73-0.77
			c0.42,0.02,0.87,0.41,1.32,1.17l3.04,5.05l2.99-4.83c0.43-0.69,0.82-1.02,1.19-1c0.59,0.03,0.87,0.36,0.84,0.99
			c-0.01,0.24-0.07,0.51-0.19,0.81c-0.13,0.35-0.14,0.81-0.02,1.38l2.76,12.81C88.91,171.92,88.92,172.26,88.86,172.53z"/>
		<path class="st2" d="M94.9,168.46c0.05,0.57-0.11,1.1-0.48,1.6c-0.37,0.5-0.82,0.79-1.34,0.87c-1.01,0.17-1.58-0.11-1.69-0.82
			c-0.01-0.07-0.02-0.15-0.02-0.23c0.31-0.14,0.54-0.37,0.67-0.68c0.08-0.2,0.08-0.59-0.02-1.18l-1.61-9.87
			c-0.13-0.81-0.52-1.24-1.16-1.29c0.04-1.21,0.66-1.91,1.87-2.11c0.46-0.08,0.84-0.03,1.14,0.14l0.43,0.36
			c-0.13,0.12-0.29,0.35-0.47,0.7c-0.1,0.19-0.1,0.61,0.01,1.25l1.6,9.82c0.07,0.44,0.17,0.76,0.3,0.95
			C94.27,168.21,94.53,168.37,94.9,168.46z"/>
		<path class="st2" d="M103.73,156.26c-0.07,0.13-0.21,0.13-0.43,0.02c-0.2-0.17-0.36-0.24-0.49-0.21
			c-0.21,0.05-0.63,0.31-1.26,0.77c-0.44,0.32-0.86,0.59-1.28,0.79l1.47,8.14c0.04,0.25,0.12,0.48,0.23,0.67
			c0.01,0.03,0.12,0.16,0.32,0.39c0.02,0.33-0.07,0.64-0.27,0.93c-0.2,0.29-0.45,0.46-0.75,0.51c-0.82,0.15-1.3-0.24-1.44-1.15
			c-0.02-0.12-0.03-0.31-0.04-0.57c-0.01-0.26-0.02-0.45-0.05-0.59l-1.38-7.64c-0.41,0.11-0.98,0.15-1.71,0.11
			c-0.73-0.04-1.29-0.14-1.68-0.3c-1.5-0.63-2.49-1.57-2.97-2.82c0.85,0.25,1.81,0.29,2.88,0.12c0.87-0.13,1.83-0.44,2.87-0.94
			c1.46-0.7,2.46-1.41,2.98-2.14c0.06-0.08,0.18-0.3,0.38-0.65c0.11-0.2,0.23-0.32,0.35-0.34c0.11-0.02,0.19,0.04,0.25,0.17
			c0.17,0.6,0.43,1.36,0.81,2.26c0.29,0.69,0.64,1.34,1.07,1.96C103.75,155.97,103.79,156.14,103.73,156.26z"/>
		<path class="st2" d="M118.02,158.14c0.19,0.47-0.06,1.09-0.76,1.87c-0.59,0.66-1.34,1.27-2.25,1.83
			c-1.92,1.17-3.61,1.73-5.07,1.67c-1.4-0.83-2.95-2.64-4.65-5.44c-0.74-1.22-1.28-2.22-1.62-3c-0.73-1.64-0.91-2.87-0.56-3.67
			c0.16-0.36,0.35-0.62,0.56-0.78c-0.03,0.03,0.23-0.12,0.81-0.45l1.54-0.89c0.36-0.21,0.77-0.48,1.24-0.81
			c0.46-0.33,0.82-0.66,1.08-1c0.68-0.46,1.19-0.44,1.53,0.06c0.54,0.83-0.21,1.88-2.26,3.16c-0.44,0.28-0.91,0.54-1.41,0.79
			c-0.29,0.15-0.51,0.27-0.68,0.37c-0.39,0.24-0.62,0.49-0.7,0.75c-0.08,0.26-0.04,0.62,0.13,1.09c0.15,0.41,0.36,0.75,0.64,1.03
			l4.34-2.7c0.54-0.33,0.93-0.29,1.19,0.12c0.29,0.46,0.14,0.88-0.44,1.24l-4.3,2.68c0.12,0.38,0.49,0.97,1.1,1.76
			c0.62,0.81,1.42,1.11,2.4,0.9c0.62-0.13,1.42-0.51,2.39-1.14c0.81-0.53,1.44-1.09,1.9-1.69c0.09-0.18,0.29-0.48,0.61-0.89
			c0.07-0.08,0.15-0.14,0.23-0.19c0.43-0.27,0.77-0.19,1.04,0.22c0.12,0.18,0.22,0.46,0.31,0.84c0.09,0.38,0.19,0.65,0.29,0.81
			c0.1,0.16,0.3,0.35,0.61,0.57c0.3,0.22,0.51,0.41,0.61,0.57C117.92,157.93,117.97,158.03,118.02,158.14z"/>
		<path class="st2" d="M125.28,145.54c0.84,1.5,1.12,3.11,0.83,4.84c-0.24,1.41-0.82,2.78-1.74,4.1c-0.78,1.11-1.57,1.9-2.36,2.35
			c-0.8,0.45-1.31,0.47-1.55,0.05c-0.03-0.05-0.02-0.32,0.04-0.82c0.05-0.49-0.04-0.95-0.27-1.37l-4.98-8.87
			c-0.31-0.55-0.57-0.81-0.78-0.75c-0.13,0.03-0.25,0.07-0.35,0.13c-0.09,0.05-0.2,0.15-0.33,0.32c-0.13,0.16-0.24,0.27-0.33,0.32
			c-0.6,0.33-1.03,0.25-1.31-0.24c-0.5-0.88,0.28-1.9,2.34-3.06c1.88-1.05,3.76-1.4,5.63-1.04
			C122.29,141.93,124.01,143.27,125.28,145.54z M121.9,144.76c-0.3-0.54-0.72-0.98-1.25-1.31c-0.53-0.33-1.08-0.51-1.66-0.54
			c-0.68-0.03-1.27,0.1-1.77,0.38c-0.23,0.13-0.39,0.28-0.47,0.44c-0.14,0.31-0.04,0.77,0.3,1.38l2.35,4.18
			c0.43,0.76,0.77,1.14,1.02,1.14c0.11,0,0.23-0.04,0.38-0.12c0.6-0.34,1.04-0.94,1.32-1.81
			C122.58,147.08,122.5,145.84,121.9,144.76z"/>
	</g>
	<g>
		<path class="st2" d="M78.03,180.73c-0.22,0.98-0.67,2.25-1.33,3.79c-0.76,1.76-1.44,3.19-2.03,4.31
			c-0.55,0.99-1.64,2.95-3.27,5.89c-0.41,0.74-0.66,1.17-0.75,1.3c-0.31,0.45-0.59,0.65-0.86,0.61c-0.41-0.06-0.58-0.25-0.53-0.56
			c0.03-0.16,0.14-0.37,0.35-0.63c0.14-0.18,0.22-0.36,0.25-0.54c0.03-0.17-0.09-0.55-0.36-1.14l-1.02-2.24
			c-0.3-0.66-0.52-1.01-0.66-1.03c-0.24-0.04-0.5,0.19-0.79,0.67l-1.78,2.98c-0.14,0.2-0.33,0.49-0.56,0.88
			c-0.28,0.48-0.61,0.71-0.99,0.67c-0.23-0.03-0.35-0.14-0.37-0.34c-0.01-0.12,0.02-0.24,0.1-0.36c0.09-0.16,0.14-0.27,0.16-0.33
			c0.03-0.13-0.05-0.41-0.24-0.83c-0.08-0.17-0.31-0.63-0.71-1.39c-0.62-1.17-1.2-2.71-1.75-4.62c-0.42-1.48-0.69-3.44-0.82-5.87
			c-0.03-0.53-0.05-1.01-0.05-1.42c-0.07-0.56-0.27-0.88-0.6-0.98c-0.55-0.16-0.81-0.37-0.78-0.66c0.03-0.3,0.34-0.47,0.92-0.52
			c0.41-0.03,1.15-0.18,2.22-0.45c0.43-0.11,1.17-0.36,2.22-0.75c0.27-0.14,0.66-0.28,1.17-0.43c0.3-0.02,0.47,0.08,0.51,0.32
			c0.01,0.07,0.02,0.13,0.01,0.17c-0.02,0.12-0.13,0.27-0.34,0.47c-0.26,0.25-0.45,0.45-0.57,0.61c-0.18,0.25-0.31,0.57-0.37,0.97
			c-0.06,0.41-0.06,0.9,0.01,1.47c0.28,2.28,0.7,4.24,1.26,5.87c0.19,0.56,0.47,1.18,0.84,1.86c0.23-0.18,0.82-1.09,1.78-2.73
			c0.28-0.47,0.82-1.4,1.61-2.78c0.34-0.62,0.65-0.92,0.94-0.9c0.19,0.01,0.32,0.09,0.4,0.24c0.08,0.15,0.08,0.32,0.02,0.52
			c-0.04,0.12-0.14,0.36-0.33,0.72c-0.03,0.07-0.06,0.14-0.07,0.22c-0.06,0.37,0.06,0.87,0.35,1.51c0.18,0.37,0.45,0.91,0.81,1.64
			c0.08,0.16,0.47,0.84,1.17,2.04c0.22-0.35,0.56-1.01,1.02-1.99c0.91-1.96,1.45-3.53,1.64-4.71c0.18-1.14,0.12-1.91-0.18-2.31
			c-0.22-0.3-0.49-0.47-0.8-0.51c-0.1-0.02-0.21-0.02-0.33,0c0.34-1.35,0.97-1.96,1.89-1.82c0.68,0.11,1.16,0.48,1.45,1.11
			C78.15,179.33,78.2,179.99,78.03,180.73z"/>
		<path class="st2" d="M89.72,195.29c0.04,0.17,0.07,0.34,0.07,0.52c0.01,0.61-0.2,0.96-0.63,1.05c-0.13,0.03-0.23,0.04-0.3,0.04
			c-0.47,0.01-0.8-0.34-1-1.05l-0.44-1.62c-0.11-0.4-0.19-0.66-0.26-0.79c-0.3-0.62-0.96-0.92-1.96-0.9l-4.46,0.09
			c-1.46,0.03-2.3,0.57-2.53,1.61l-0.39,1.81c-0.15,0.72-0.5,1.08-1.04,1.09c-0.08,0-0.15-0.01-0.23-0.03
			c-0.47-0.14-0.71-0.4-0.72-0.78c0-0.15,0.02-0.36,0.08-0.62l2.42-10.94c0.36-1.64,0.72-2.74,1.09-3.29
			c0.63-0.95,1.67-1.44,3.13-1.47c2.04-0.04,3.43,1.32,4.17,4.07L89.72,195.29z M85.94,188.52c-0.28-1.05-0.59-1.79-0.93-2.22
			c-0.57-0.72-1.36-1.07-2.36-1.05c-1.78,0.04-2.84,1.17-3.18,3.4L85.94,188.52z"/>
		<path class="st2" d="M99.27,179.51c0.18,1.22-0.05,2.74-0.67,4.56c-0.25,0.72-0.62,1.44-1.12,2.16l1.25,4.93
			c0.09,0.34,0.2,0.53,0.35,0.56c0.09,0.02,0.27,0.01,0.54-0.03c0.19-0.03,0.32,0.03,0.38,0.19c0.04,0.09-0.19,0.35-0.67,0.77
			c-0.21,0.17-0.52,0.43-0.92,0.79c-0.35,0.33-0.7,0.72-1.05,1.16c-0.4,0.5-0.63,0.76-0.69,0.78c-0.19,0.05-0.32-0.05-0.38-0.3
			c-0.03-0.13,0.01-0.38,0.13-0.75c0.07-0.2,0.03-0.56-0.1-1.09l-1.15-4.54c-0.37-0.07-1.04-0.31-2-0.72
			c-1.34-0.77-2.38-1.72-3.12-2.86c-0.12-0.18-0.3-0.46-0.54-0.84c-0.23-0.35-0.46-0.57-0.67-0.67c-0.12-0.06-0.41-0.08-0.86-0.07
			c-0.35,0.01-0.56-0.08-0.61-0.27c-0.06-0.22,0-0.42,0.18-0.59c0.11-0.1,0.31-0.28,0.59-0.54c0.62-0.61,1.37-1.63,2.23-3.06
			c0.23-0.38,0.42-0.59,0.58-0.63c0.18-0.04,0.32,0.06,0.42,0.31c0.05,0.13,0.03,0.29-0.06,0.48c-0.13,0.24-0.19,0.42-0.19,0.52
			c-0.01,0.46,0.12,1,0.41,1.6c0.47,1,1.17,1.86,2.11,2.57c1.09,0.82,1.97,1.21,2.65,1.18c0.37-0.25,0.72-0.84,1.05-1.76
			c0.41-1.13,0.5-2.21,0.27-3.24c-0.25-1.14-0.63-1.76-1.13-1.87c-0.29-0.06-0.61,0.04-0.96,0.29c-0.39-0.16-0.67-0.54-0.84-1.15
			c-0.13-0.44-0.06-0.85,0.19-1.22c0.24-0.34,0.57-0.57,0.98-0.67c0.71-0.18,1.44,0.11,2.18,0.88c0.47,0.5,0.83,1.22,1.07,2.16
			C99.16,178.84,99.22,179.17,99.27,179.51z"/>
	</g>
	<path class="st5" d="M37.73,58.34c0.68,0.52,0.84,1.24,0.48,2.13c-0.51,1.23-1.12,1.82-1.83,1.78c-0.12-0.01-0.94-0.31-2.45-0.91
		c-0.64-0.26-1.48-0.46-2.54-0.6l-7.54-1.03c-0.24-0.04-0.66-0.09-1.26-0.16c-0.29,0.02-0.54,0.2-0.73,0.54
		c-0.17,0.32-0.12,0.73,0.14,1.21l3.52,6.25c0.22,0.38,0.77,0.9,1.65,1.55c0.19,0.14,0.48,0.24,0.87,0.3
		c0.43,0.05,0.73,0.11,0.88,0.19c0.29,0.14,0.44,0.42,0.44,0.84c0,0.21-0.04,0.41-0.13,0.59c-0.15,0.32-0.6,0.55-1.36,0.7
		l-10.86,2.08c-0.57,0.1-0.92,0.31-1.06,0.61c-0.19,0.4-0.02,0.87,0.51,1.38l5.79,5.58c0.41,0.4,1.15,0.89,2.2,1.48
		c1.67,0.93,2.14,2.17,1.41,3.71c-0.25,0.53-0.7,0.88-1.33,1.04c-0.21,0.05-0.48,0.01-0.79-0.14c-0.41-0.19-0.88-0.54-1.42-1.04
		L6.75,71.92c-0.9-0.83-1.61-1.25-2.14-1.25c-0.52,0-0.96-0.08-1.34-0.26c-0.78-0.37-0.99-0.96-0.61-1.75
		c0.35-0.73,1.26-1.27,2.74-1.61l9.86-2.23l-5-8.22c-0.71-1.17-0.91-2.07-0.61-2.71c0.48-1.01,1.18-1.3,2.11-0.86
		c0.35,0.17,0.71,0.44,1.07,0.83c0.42,0.45,1.1,0.74,2.06,0.88l21.27,3.03C36.84,57.88,37.37,58.07,37.73,58.34z"/>
	<path class="st5" d="M43.91,31.74c2.77,2.95,4.41,6.16,4.9,9.63c0.56,3.93-0.58,7.27-3.41,10.03c-2.93,2.86-6.32,3.88-10.17,3.06
		c-3.27-0.69-6.3-2.51-9.06-5.46c-1.27-1.35-2.33-2.95-3.19-4.8c-2.5-5.41-3.17-8.67-2.03-9.79c0.58-0.57,1.1-0.61,1.57-0.11
		c0.35,0.38,0.79,1.58,1.32,3.62c0.31,1.2,0.61,2.13,0.91,2.78c0.49,1.08,1.23,2.17,2.24,3.26c1.62,1.77,3.51,2.69,5.67,2.78
		c2.24,0.09,4.28-0.75,6.11-2.53c1.86-1.81,2.79-3.76,2.79-5.85c0-2-0.83-3.88-2.5-5.66c-1.73-1.84-3.7-3.11-5.9-3.81
		c-2.03-0.64-3.19-1.11-3.47-1.41c-0.3-0.32-0.37-0.69-0.22-1.11c0.09-0.26,0.22-0.46,0.38-0.62c1.11-1.09,4.28-0.24,9.5,2.55
		C41.11,29.23,42.63,30.38,43.91,31.74z"/>
	<path class="st5" d="M76.81,28.41c-0.41,0.64-0.67,1.02-0.78,1.15c-0.32,0.4-0.69,0.68-1.11,0.86c-0.39,0.17-1.01,0.3-1.85,0.37
		c-0.31,0.67-0.92,1.69-1.83,3.05c-1.85,2.16-4.27,3.53-7.24,4.13c-2.54,0.51-5.15,0.29-7.84-0.67c-2.31-0.82-4.18-1.97-5.62-3.45
		c-2-2.06-3.27-4.45-3.82-7.19c-0.71-3.52,0.02-6.95,2.2-10.28c2.28-3.51,5.43-5.67,9.45-6.48c1.28-0.26,3.07-0.32,5.4-0.19
		c0.56,0.03,1.25,0.2,2.07,0.5c0.63,0.23,1.19,0.3,1.67,0.2c0.26-0.05,0.61-0.26,1.04-0.62c0.43-0.37,0.77-0.57,1-0.62
		c0.15-0.03,0.35-0.03,0.6,0c0.37,0.05,0.58,0.21,0.63,0.49c0.07,0.36-0.04,0.71-0.32,1.08c-1.02,1.29-1.85,2.43-2.48,3.41
		c-0.4,0.62-0.92,1.67-1.55,3.15c-0.36,0.83-0.73,1.28-1.1,1.35c-0.56,0.11-0.89-0.3-0.98-1.25c-0.01-0.13-0.04-0.31-0.09-0.54
		c-0.29-1.42-1.18-2.46-2.68-3.11c-1.26-0.54-2.58-0.69-3.94-0.44c-2.56,0.47-4.44,1.78-5.64,3.93c-1.12,2.01-1.38,4.2-0.76,6.56
		c0.7,2.69,2.16,4.51,4.4,5.47c1.81,0.77,3.92,0.92,6.34,0.43c1.17-0.23,2.14-0.77,2.93-1.62c0.86-0.91,1.18-1.9,0.97-2.95
		c-0.11-0.55-0.42-0.87-0.95-0.98c-0.39-0.08-0.61-0.39-0.66-0.92c-0.06-0.53,0.31-0.88,1.12-1.04l9.02-1.81
		c0.36,0,0.58,0.22,0.67,0.68c0.09,0.43,0.01,0.81-0.22,1.14c-0.37,0.51-0.61,0.92-0.72,1.24c-0.26,0.75-0.29,1.63-0.1,2.62
		C74.27,27.12,75.19,27.92,76.81,28.41z"/>
	<path class="st5" d="M99.56,33.33c-0.31,0.89-1.58,1.45-3.82,1.69c-1.9,0.21-3.99,0.14-6.29-0.21c-4.83-0.71-8.45-2-10.85-3.85
		c-1.25-2.86-1.42-7.27-0.5-13.25c0.39-2.6,0.83-4.66,1.31-6.16c0.99-3.17,2.34-5.11,4.03-5.8c0.76-0.31,1.43-0.45,2.01-0.41
		c-0.1,0,0.56,0.12,1.99,0.36l3.81,0.65c0.9,0.15,1.96,0.28,3.19,0.39s2.29,0.08,3.19-0.07c1.78,0.2,2.62,0.85,2.5,1.96
		c-0.2,1.82-2.9,2.36-8.11,1.64c-1.12-0.16-2.27-0.36-3.45-0.62c-0.69-0.15-1.24-0.25-1.65-0.31c-0.98-0.14-1.72-0.07-2.21,0.19
		c-0.49,0.27-0.91,0.83-1.25,1.68c-0.3,0.74-0.41,1.48-0.31,2.21l11,1.54c1.36,0.19,1.98,0.73,1.85,1.61c-0.14,1-0.95,1.4-2.42,1.19
		l-10.92-1.52c-0.31,0.68-0.48,1.94-0.53,3.79c-0.05,1.88,0.9,3.27,2.85,4.19c1.23,0.58,3.09,1.02,5.58,1.33
		c2.08,0.25,3.92,0.24,5.5-0.04c0.4-0.14,1.14-0.3,2.23-0.49c0.23-0.02,0.45-0.02,0.66,0.01c1.08,0.15,1.57,0.68,1.47,1.58
		c-0.04,0.39-0.24,0.9-0.6,1.55c-0.36,0.64-0.56,1.14-0.61,1.49c-0.05,0.35,0.04,0.86,0.25,1.54c0.22,0.68,0.3,1.19,0.25,1.54
		C99.68,32.91,99.63,33.11,99.56,33.33z"/>
	<path class="st5" d="M130.49,22.54c-0.1,0.2-0.38,0.53-0.82,0.99c-0.44,0.46-0.74,0.84-0.9,1.15l-9.66,19.18
		c-0.62,1.24-1.55,1.55-2.79,0.92c-1.14-0.57-1.49-1.38-1.04-2.42c0.09-0.21,0.27-0.48,0.55-0.82c0.28-0.34,0.46-0.6,0.55-0.78
		l1.95-3.88l-8.67-12.49l-5.27,10.46c-0.09,0.18-0.21,0.45-0.34,0.82c-0.14,0.37-0.25,0.64-0.34,0.82c-0.52,1.03-1.4,1.24-2.64,0.62
		c-1.35-0.68-1.7-1.59-1.06-2.73c0.1-0.16,0.27-0.41,0.51-0.75c0.25-0.33,0.42-0.6,0.51-0.79l8.37-16.63
		c0.23-0.46,0.43-1.13,0.61-2.02c0.17-0.89,0.35-1.51,0.53-1.87c0.27-0.53,0.69-0.77,1.28-0.73c0.32,0.02,0.61,0.09,0.85,0.22
		c0.33,0.16,0.96,0.93,1.9,2.29l8.76,12.63l2.51-4.99c0.88-1.75,2.07-2.25,3.56-1.5C130.6,20.84,130.96,21.61,130.49,22.54z"/>
	<path class="st5" d="M143.06,52.43c-2.46,1.8-5.34,2.49-8.66,2.08c-2.71-0.34-5.46-1.37-8.26-3.08c-2.36-1.44-4.11-2.94-5.26-4.48
		c-1.15-1.54-1.37-2.56-0.68-3.07c0.08-0.06,0.59-0.06,1.53,0c0.94,0.06,1.75-0.16,2.44-0.67l14.57-10.68
		c0.91-0.67,1.28-1.21,1.1-1.62c-0.1-0.25-0.23-0.48-0.38-0.68c-0.12-0.17-0.36-0.38-0.72-0.62c-0.36-0.24-0.6-0.45-0.72-0.62
		c-0.84-1.15-0.86-2.03-0.04-2.62c1.45-1.06,3.64,0.39,6.55,4.36c2.66,3.63,4.01,7.33,4.05,11.09
		C148.62,46.16,146.78,49.7,143.06,52.43z M143.22,45.64c0.89-0.65,1.54-1.52,1.96-2.59c0.42-1.08,0.54-2.19,0.36-3.35
		c-0.21-1.36-0.66-2.52-1.37-3.48c-0.33-0.45-0.66-0.75-0.99-0.89c-0.62-0.26-1.43-0.02-2.44,0.72l-6.87,5.04
		c-1.25,0.92-1.83,1.63-1.72,2.12c0.04,0.21,0.17,0.46,0.37,0.74c0.85,1.16,2.14,1.98,3.85,2.46
		C139.17,47.2,141.45,46.94,143.22,45.64z"/>
	<path class="st5" d="M151,79.59c-3.75,1.18-7.25,1.08-10.52-0.31c-3.55-1.5-5.95-4.23-7.19-8.16c-1.29-4.08-0.94-7.72,1.06-10.9
		c1.83-2.91,4.68-4.98,8.56-6.21c3.55-1.12,7.03-0.95,10.44,0.51c3.66,1.57,6.09,4.23,7.27,7.96c1.19,3.76,0.74,7.33-1.35,10.71
		C157.33,76.33,154.57,78.46,151,79.59z M152.59,73.78c2.14-0.68,3.73-2,4.78-3.98c1.07-2.03,1.25-4.18,0.53-6.46
		c-0.72-2.28-2.11-3.94-4.16-4.98c-1.98-1-4.03-1.17-6.17-0.49s-3.73,1.99-4.77,3.95c-1.09,2.03-1.27,4.19-0.55,6.47
		c0.72,2.28,2.1,3.94,4.15,4.99C148.39,74.29,150.45,74.46,152.59,73.78z"/>
</g>
<g id="ribbon-layer">
	<g>
		<path class="st6" d="M72.04,99.59c0,0-9.11,14.02-11.96,26.16c0.74,1.08,2.35,1.18,4.85,2.5c-0.2-7.99,10.53-24.35,10.53-24.35
			L72.04,99.59z"/>
		<path class="st6" d="M75.47,92.91l0.5,0.13l0.53-0.13l0.63-0.27l0.6-0.37l0.67-0.43l0.43-0.43l0.63-0.63l0.43-0.47l0.3-0.4
			l0.5-0.37l0.77-0.27l0.94-0.17h1.2l0.94,0.17l0.9,0.43l0.57,0.43l0.4,0.43l0.23,0.3v0.33l-0.8,1.3l-0.84,1.07l-0.87,0.97
			l-1.34,1.04l-1.27,0.83c-1.43,0.52-2.97,1.1-4.51,1.1L75.47,92.91z"/>
		<path class="st6" d="M75.44,91.49c-1.3-0.56-2.94-0.92-4.59,0.29c-1.58,1.54,2.19,12.19,7.67,13.94c2.47,0.18,2.08-2.22,2.08-2.22
			S76.45,97.23,75.44,91.49z"/>
		<path class="st6" d="M77.61,98.05c0.71,0.31,1.67,0.05,2.33-0.25c0.69-0.32,1.22-0.89,2.05-0.81c0.67,0.06,1.21,0.55,1.64,1.03
			c0.26,0.29,0.5,0.59,0.73,0.9c0.57,0.8,0.35,1.82-0.21,2.58c-0.37,0.51-1.07,0.67-1.65,0.73c-0.54,0.06-1.2,0.21-1.72,0.01
			c-0.72-0.28-1.19-1.22-1.58-1.84c-0.42-0.65-0.87-1.27-1.3-1.92C77.84,98.39,77.71,98.09,77.61,98.05z"/>
		<path class="st6" d="M81.46,97.26c0,0,4,1.5,7.92,7.33c3.92,5.83,12.67,18.17,12.5,22.58l5.08-3.42c0,0-6.01-11.81-8.25-15.17
			c-2.37-3.54-6.17-11.17-11.67-14.08c-1.31-0.7-3.17,0.67-3.17,0.67L81.46,97.26z"/>
	</g>
</g>
<g id="icon-layer">
	<g>
		<path class="st1" d="M145.28,97.14c-0.19-0.18-0.61-0.21-0.78-0.08c-0.07,0.06-0.15,0.11-0.22,0.17
			c-0.04,0.03-0.06,0.06-0.08,0.09c-0.19,0.02-0.33,0.11-0.28,0.29c0.87,3.01-3.74,5.32-5.49,7.1c-1.13,1.15-1.19,2.47,0.77,2.06
			c1.05-0.22,1.97-1.19,2.81-1.79c1.58-1.14,2.84-2.29,3.87-3.96C146.86,99.42,147,97.37,145.28,97.14z"/>
		<g>
			<path class="st1" d="M154.82,108.78c-0.94-0.38-1.9-0.31-2.9-0.36c-0.69-0.04-1.39,0.05-2.07,0.08c-1.25,0.06-0.68-1.03-0.5-1.71
				c0.44-1.6,1.33-1.1,2.49-1.6c0.56-0.25,0.3-1.53-0.06-1.83c-0.32-0.27-0.95-0.33-1.35-0.29c-1.75,0.17-3.44,0.82-5.2,1.01
				c-0.13-0.04-0.25-0.07-0.35-0.08c-0.14-0.03-0.28-0.04-0.41,0.01c-0.05,0.02-0.08,0.03-0.11,0.05c-0.26,0.04-0.47,0.19-0.56,0.5
				c-0.4,0.5-0.33,1.14,0.7,1.27c0.88,0.11,2.45-0.21,2.2,1.52c-0.09,0.64-0.52,0.99-1.09,1.18c-0.34,0.07-0.68,0.14-1.04,0.18
				c-0.76,0.04-1.55-0.04-2.05-0.08c-0.43-0.03-1.71-0.15-1.98,0.37c-0.96,1.83,4.01,1.46,4.54,1.57c2.85,0.58,5.97,0.18,8.79,0.88
				C155.11,111.78,156.12,109.3,154.82,108.78z"/>
			<path class="st1" d="M159.62,100.34c2.51-1.38,4.51-2.77,3.58-6.04c-0.68-2.4-4-2.32-5.91-2.46c-1.05-0.08-2.09,0-3.13-0.16
				c0.04-0.03,0.06-0.06,0.04-0.11c-0.53-1.62-1.33-3.69-3.16-4.24c-0.1-0.03-0.2-0.06-0.29-0.08c-0.59-0.34-1.27-0.58-2.05-0.66
				c-0.81-0.09-0.95,0.5-0.95,1.16c0,0.41,0.35,0.8,0.57,1.11c0.27,0.29,0.54,0.57,0.81,0.86c0.33,0.35,0.45,0.7,0.45,1.04
				c-0.06,0.07-0.12,0.14-0.15,0.23c-0.25,0.77-0.62,1.48-0.98,2.2c-0.2,0.08-0.42,0.14-0.66,0.18c-0.8,0.12-1.62-0.04-2.41,0.06
				c-0.23,0.03-0.46,0.05-0.68,0.11c-0.06-0.01-0.12-0.03-0.14-0.05c-0.57-0.55-0.81-1.36-1.68-1.54c-0.31-0.06-1.08-0.13-1.24,0.29
				c-0.24,0.67-0.24,1.34-0.28,2.04c-0.06,0.99-0.81,2.01-1.23,2.89c-0.01,0.03,0,0.06,0.02,0.09c-0.88,1.33-1.93,3.15-0.02,3.54
				c2.67,0.55,2.75-3,4.13-4.29c0.05,0.01,0.1,0.02,0.14,0.01c2.88-0.19,5.71-0.93,8.55-0.98c0.44-0.01,4.8-0.73,4.78,0.65
				c-0.01,0.38-0.22,0.63-0.45,0.91c-0.24,0.3-0.39,0.65-0.63,0.94c-0.26,0.32-0.67,0.68-1.01,0.91c-0.84,0.58-1.95,0.76-1.32-0.63
				c0.3-0.67,0.33-1.01,0.02-1.63c-0.66-1.33-2.15,0.84-2.36,1.17c-1.43,2.27-2.06,4.42,0.93,5.67c1.41,0.58,3.35,0.98,4.86,0.71
				c0.39-0.07,1.25-0.19,1.35-0.7C159.43,101.97,157.21,101.66,159.62,100.34z"/>
		</g>
		<path class="st1" d="M149.4,133.57c-0.03-0.33-0.48-0.63-0.8-0.68c-1.48-0.19-2.69-0.76-1.93-2.48c0.01-0.01,0.01-0.02,0.02-0.04
			c0,0,0,0,0.01-0.01c0-0.01,0-0.01,0.01-0.02c0.67-1.42,1.88-0.46,2.79-0.64c1.86-0.37,0.19-2.68-0.75-3.19
			c-1.49-0.82-3.17-1.33-4.74-0.86c0.37-1.31,2.52-2.45,2.91-3.7c0.35-1.13,0.46-2.19-0.38-3.1c-0.03-0.03-0.07-0.05-0.11-0.08
			c-0.08-0.23-0.67-0.38-0.9-0.2c-1.66,1.28-2.83,2.81-4.67,3.93c-1.16,0.71-3.21,1.04-4.15,2c-1.5,1.56,1.48,1.7,2.81,1.76
			c-0.29,0.61-1.08,0.88-1.87,1.05c-0.1-0.03-0.2-0.05-0.29-0.04c-2.17,0.3-4.87,1.18-5.52,3.64c-0.54,2.03,0.83,3.83,2.3,5.37
			c0.66,0.86,1.38,1.78,2.24,2.38c0.02,0.02,0.05,0.02,0.07,0.03c1.54,1.71,3.36,3.74,5.6,4.18c2.51,0.5,3.26-2.87,3.6-4.58
			c0.4-2,0.86-3.26,2.95-3.73C149.16,134.45,149.45,134.16,149.4,133.57z M138.71,137.78c-1.01-0.89-2.02-1.48-2.93-2.54
			c-0.71-0.83-1.23-1.65-1.6-2.69c-1.13-3.14,3.1-2.46,4.61-3.2c0.01-0.01,0.01-0.01,0.02-0.02c1.12,0.06,2.12-0.37,3.24-0.42
			c1.7,0.31,2.1,0.75,1.21,1.33c-0.31,0.22-0.63,0.42-0.97,0.6c-0.54,0.3-1.09,0.56-1.64,0.83c-0.81,0.4-3.01,1.63-1.25,2.49
			c0.52,0.26,1.19,0.33,1.76,0.26c2.64-0.32,1.75,1.15,1.91,2.22C143.4,138.97,140.13,139.04,138.71,137.78z"/>
	</g>
	<g>
		<path class="st1" d="M9.45,104.98c-0.25-0.07-0.64,0.08-0.73,0.27c-0.04,0.08-0.08,0.17-0.12,0.25c-0.02,0.04-0.03,0.08-0.03,0.11
			c-0.16,0.1-0.25,0.25-0.12,0.38c2.12,2.3-0.96,6.43-1.73,8.8c-0.5,1.54,0.04,2.75,1.61,1.5c0.84-0.67,1.23-1.94,1.71-2.86
			c0.91-1.72,1.51-3.32,1.69-5.28C11.88,106.31,11.09,104.42,9.45,104.98z"/>
		<path class="st1" d="M29.28,133.58c-0.15-0.29-0.69-0.4-1-0.32c-1.44,0.38-2.77,0.32-2.73-1.55c0-0.02,0.01-0.03,0.01-0.04
			c0,0,0-0.01,0-0.01c0-0.01,0-0.01,0-0.02c0.08-1.57,1.56-1.14,2.34-1.66c1.58-1.05-0.85-2.55-1.91-2.67
			c-1.69-0.19-3.44-0.02-4.71,1.01c-0.16-1.35,1.4-3.22,1.28-4.53c-0.11-1.18-0.41-2.2-1.53-2.72c-0.04-0.02-0.08-0.02-0.13-0.03
			c-0.16-0.18-0.77-0.1-0.91,0.16c-1.04,1.82-1.54,3.67-2.82,5.42c-0.8,1.1-2.58,2.18-3.07,3.43c-0.8,2.01,2.02,1.01,3.27,0.55
			c-0.03,0.67-0.66,1.22-1.33,1.68c-0.1,0.01-0.2,0.03-0.28,0.07c-1.89,1.11-4.05,2.95-3.72,5.47c0.28,2.09,2.23,3.22,4.17,4.09
			c0.94,0.54,1.96,1.12,2.98,1.34c0.02,0.01,0.05,0,0.07,0c2.07,0.99,4.53,2.18,6.77,1.73c2.51-0.5,1.91-3.9,1.58-5.6
			c-0.39-2-0.45-3.34,1.3-4.57C29.4,134.49,29.55,134.11,29.28,133.58z M21,141.55c-1.27-0.44-2.43-0.6-3.68-1.23
			c-0.97-0.49-1.77-1.06-2.51-1.88c-2.25-2.47,1.93-3.46,3.04-4.71c0.01-0.01,0.01-0.01,0.01-0.02c1.05-0.37,1.81-1.15,2.83-1.62
			c1.69-0.36,2.23-0.11,1.62,0.76c-0.2,0.32-0.42,0.63-0.67,0.92c-0.38,0.48-0.8,0.93-1.2,1.39c-0.59,0.68-2.16,2.65-0.2,2.77
			c0.58,0.04,1.22-0.15,1.73-0.43c2.32-1.31,2.06,0.4,2.61,1.33C25.79,140.86,22.8,142.18,21,141.55z"/>
		<g>
			<path class="st1" d="M23.19,111.11c-1.01,0.08-1.84,0.58-2.75,0.97c-0.63,0.27-1.22,0.67-1.82,1c-1.1,0.61-1.07-0.62-1.21-1.3
				c-0.32-1.62,0.7-1.58,1.5-2.55c0.39-0.47-0.42-1.5-0.87-1.61c-0.41-0.09-0.99,0.13-1.33,0.35c-1.48,0.94-2.71,2.28-4.19,3.23
				c-0.14,0.02-0.26,0.05-0.35,0.09c-0.14,0.04-0.27,0.09-0.36,0.19c-0.03,0.04-0.06,0.07-0.07,0.1c-0.21,0.16-0.34,0.38-0.27,0.7
				c-0.14,0.62,0.21,1.17,1.19,0.82c0.83-0.3,2.09-1.29,2.65,0.37c0.21,0.61-0.02,1.12-0.44,1.54c-0.27,0.22-0.55,0.43-0.85,0.63
				c-0.66,0.38-1.41,0.66-1.87,0.85c-0.4,0.17-1.59,0.63-1.6,1.22c-0.04,2.07,4.24-0.49,4.76-0.63c2.81-0.76,5.42-2.52,8.25-3.16
				C24.8,113.66,24.58,111,23.19,111.11z"/>
			<path class="st1" d="M23.69,101.41c1.63-2.36,2.79-4.5,0.5-7c-1.68-1.84-4.61-0.29-6.39,0.45c-0.97,0.4-1.87,0.93-2.87,1.26
				c0.02-0.04,0.03-0.08-0.01-0.12c-1.2-1.21-2.85-2.7-4.72-2.38c-0.1,0.02-0.2,0.04-0.3,0.06c-0.69-0.04-1.39,0.05-2.13,0.33
				C7,94.29,7.14,94.88,7.44,95.47c0.19,0.37,0.67,0.56,1.01,0.73c0.37,0.13,0.74,0.27,1.11,0.41c0.45,0.17,0.71,0.42,0.86,0.73
				c-0.02,0.09-0.04,0.17-0.03,0.27c0.12,0.8,0.12,1.6,0.11,2.41c-0.14,0.16-0.31,0.32-0.51,0.45c-0.66,0.46-1.46,0.69-2.13,1.14
				c-0.19,0.13-0.38,0.25-0.56,0.41c-0.06,0.01-0.12,0.03-0.15,0.02c-0.76-0.24-1.33-0.86-2.19-0.63c-0.3,0.08-1.02,0.37-0.97,0.82
				c0.08,0.7,0.38,1.3,0.66,1.95c0.39,0.92,0.17,2.16,0.2,3.13c0,0.04,0.02,0.06,0.06,0.08c-0.2,1.58-0.32,3.68,1.57,3.18
				c2.64-0.71,1.11-3.92,1.76-5.69c0.05-0.01,0.1-0.03,0.13-0.05c2.49-1.46,4.68-3.39,7.21-4.71c0.39-0.21,3.97-2.8,4.56-1.56
				c0.17,0.35,0.08,0.67,0.01,1.02c-0.08,0.37-0.06,0.76-0.14,1.13c-0.09,0.4-0.3,0.91-0.5,1.27c-0.49,0.89-1.4,1.55-1.46,0.03
				c-0.03-0.74-0.16-1.05-0.71-1.47c-1.18-0.89-1.54,1.71-1.58,2.11c-0.26,2.67,0.14,4.88,3.38,4.65c1.52-0.11,3.43-0.62,4.66-1.55
				c0.32-0.24,1.03-0.73,0.89-1.24C24.26,102.96,22.13,103.68,23.69,101.41z"/>
		</g>
	</g>
</g>
</svg>
